<svg id="Layer_1" data-name="Layer 1" xmlns="http://www.w3.org/2000/svg" viewBox="0 0 121 121"><defs><style>.cls-1,.cls-2,.cls-4{fill:none;stroke:#45152d;stroke-miterlimit:10;}.cls-1,.cls-2{stroke-width:3px;}.cls-2{stroke-dasharray:9.63 5.78;}.cls-3{fill:#fff;}.cls-4{stroke-width:4px;}.cls-5{fill:#fbac46;}</style></defs><title>icon</title><path class="cls-1" d="M105.14,66.62l3.91,3.11-3.91,3.11"/><path class="cls-2" d="M100.61,76.43,66.68,103.38"/><path class="cls-1" d="M64.42,105.18l-3.92,3.11-3.92-3.11"/><path class="cls-2" d="M52.06,101.58,18.12,74.64"/><path class="cls-1" d="M15.86,72.84,12,69.73l3.91-3.11"/><path class="cls-2" d="M20.39,63,54.32,36.08"/><path class="cls-1" d="M56.58,34.29l3.92-3.11,3.92,3.11"/><path class="cls-2" d="M68.94,37.88l33.94,26.95"/><path class="cls-3" d="M109.05,59.84,60.5,98.39,12,59.84,60.5,21.28Z"/><path class="cls-4" d="M109.05,59.84,60.5,98.39,12,59.84,60.5,21.28Z"/><path class="cls-3" d="M109.05,49.84,60.5,88.39,12,49.84,60.5,11.28Z"/><path class="cls-4" d="M109.05,49.84,60.5,88.39,12,49.84,60.5,11.28Z"/><path class="cls-5" d="M92.44,61.45,76.77,75.12,29.42,36.37,45.09,23.69Z"/><path class="cls-4" d="M92.44,61.45,76.77,75.12,29.42,36.37,45.09,23.69Z"/><path class="cls-3" d="M51.89,16.23l48.55,38.55"/><path class="cls-4" d="M51.89,16.23l48.55,38.55"/></svg>